<svg width="34" height="34" viewBox="0 0 34 34" fill="none" xmlns="http://www.w3.org/2000/svg">
<path d="M32.5833 18.3873H1.41667C0.634664 18.3873 0 17.7526 0 16.9706C0 16.1886 0.634664 15.554 1.41667 15.554H32.5833C33.3653 15.554 34 16.1886 34 16.9706C34 17.7526 33.3653 18.3873 32.5833 18.3873Z" fill="#A8A8A8"/>
<path d="M32.5833 7.52602H1.41667C0.634664 7.52602 0 6.89136 0 6.10936C0 5.32735 0.634664 4.69269 1.41667 4.69269H32.5833C33.3653 4.69269 34 5.32735 34 6.10936C34 6.89136 33.3653 7.52602 32.5833 7.52602Z" fill="#A8A8A8"/>
<path d="M32.5833 29.2481H1.41667C0.634664 29.2481 0 28.6135 0 27.8315C0 27.0495 0.634664 26.4148 1.41667 26.4148H32.5833C33.3653 26.4148 34 27.0495 34 27.8315C34 28.6135 33.3653 29.2481 32.5833 29.2481Z" fill="#A8A8A8"/>
</svg>
