<svg width="34" height="34" viewBox="0 0 34 34" fill="none" xmlns="http://www.w3.org/2000/svg">
<g clip-path="url(#clip0)">
<path d="M33.6783 8.03677L32.2099 6.5684C32.0021 6.36054 31.7258 6.24613 31.4319 6.24613C31.1381 6.24613 30.8617 6.36054 30.654 6.5684L30.5934 6.62902V5.64283C30.5934 4.40993 29.5904 3.40686 28.3575 3.40686H2.23597C1.00307 3.40693 0 4.40993 0 5.64283V28.3572C0 29.5901 1.00307 30.5932 2.23597 30.5932H28.3575C29.5904 30.5932 30.5934 29.5901 30.5934 28.3572V12.6777L33.6783 9.5928C34.1072 9.16388 34.1072 8.46582 33.6783 8.03677ZM29.5287 28.3572C29.5287 29.003 29.0033 29.5284 28.3575 29.5284H2.23597C1.59016 29.5284 1.06476 29.003 1.06476 28.3572V5.64283C1.06476 4.99702 1.59016 4.47162 2.23597 4.47162H28.3575C29.0033 4.47162 29.5287 4.99702 29.5287 5.64283V7.69378L27.1863 10.0362V7.34641C27.1863 7.1102 27.0306 6.90222 26.8039 6.83561C26.5772 6.76921 26.3339 6.85985 26.2061 7.05854L24.0986 10.337L21.991 7.05854C21.8633 6.85985 21.6199 6.76921 21.3932 6.83561C21.1666 6.90222 21.0109 7.1102 21.0109 7.34641V13.025C21.0109 13.319 21.2492 13.5574 21.5432 13.5574C21.8373 13.5574 22.0756 13.3191 22.0756 13.025V9.15904L23.6508 11.6094C23.7487 11.7617 23.9175 11.8538 24.0986 11.8538C24.2798 11.8538 24.4485 11.7617 24.5465 11.6094L26.1216 9.15904V11.1009L16.212 21.0106H13.0253C12.7313 21.0106 12.4929 21.2489 12.4929 21.5429C12.4929 21.837 12.7312 22.0753 13.0253 22.0753H15.445L13.8219 25.5535H8.48234C8.18836 25.5535 7.94996 25.7918 7.94996 26.0859C7.94996 26.3799 8.18829 26.6182 8.48234 26.6182H14.1609C14.161 26.6182 14.161 26.6182 14.1611 26.6182C14.2372 26.6182 14.3141 26.6019 14.386 26.5682L18.6449 24.5807C18.7012 24.5544 18.7524 24.5186 18.7963 24.4747L21.1957 22.0753H25.5181C25.812 22.0753 26.0504 21.837 26.0504 21.5429C26.0504 21.2489 25.8121 21.0106 25.5181 21.0106H22.2604L29.5285 13.7425V28.3572H29.5287ZM16.4902 22.3536L17.8932 23.7566L15.2625 24.9842L16.4902 22.3536ZM18.7039 23.0615L17.1853 21.5429L29.7284 8.99986L31.247 10.5184L18.7039 23.0615ZM32.9255 8.83989L31.9998 9.76553L30.4813 8.24695L31.4069 7.32131C31.4207 7.30756 31.4432 7.30756 31.4571 7.32131L32.9255 8.78962C32.9392 8.80356 32.9392 8.82608 32.9255 8.83989Z" fill="#A8A8A8"/>
<path d="M7.34665 12.4926H4.47186V10.7181H6.77881C7.07279 10.7181 7.31119 10.4797 7.31119 10.1857C7.31119 9.89163 7.07286 9.6533 6.77881 9.6533H4.47186V7.87872H7.34665C7.64063 7.87872 7.87903 7.64039 7.87903 7.34634C7.87903 7.0523 7.6407 6.81396 7.34665 6.81396H3.93954C3.64556 6.81396 3.40717 7.0523 3.40717 7.34634V13.0249C3.40717 13.3189 3.6455 13.5573 3.93954 13.5573H7.34672C7.6407 13.5573 7.8791 13.319 7.8791 13.0249C7.8791 12.7309 7.6407 12.4926 7.34665 12.4926Z" fill="#A8A8A8"/>
<path d="M14.0088 12.6924L12.0034 10.1857L14.0088 7.67891C14.1924 7.44934 14.1552 7.11432 13.9257 6.93064C13.6961 6.74696 13.361 6.78421 13.1774 7.01378L11.3217 9.33355L9.4659 7.01391C9.28222 6.78428 8.94707 6.74703 8.71764 6.93077C8.48807 7.11439 8.45082 7.44947 8.6345 7.67904L10.6399 10.1858L8.6345 12.6926C8.45088 12.9221 8.48814 13.257 8.7177 13.4407C8.81585 13.5192 8.93326 13.5574 9.04993 13.5574C9.20612 13.5574 9.36085 13.489 9.46597 13.3576L11.3218 11.0379L13.1775 13.3576C13.2827 13.4891 13.4374 13.5574 13.5936 13.5574C13.7102 13.5574 13.8277 13.5192 13.9258 13.4407C14.1552 13.2571 14.1925 12.9221 14.0088 12.6924Z" fill="#A8A8A8"/>
<path d="M20.3617 12.9207L19.3629 7.92679C19.234 7.28205 18.6631 6.81409 18.0055 6.81409H17.1307C16.4732 6.81409 15.9023 7.28205 15.7734 7.92679L14.7746 12.9207C14.717 13.2089 14.904 13.4894 15.1922 13.5471C15.4805 13.6047 15.7609 13.4177 15.8186 13.1295L16.0738 11.8539H19.0623L19.3174 13.1295C19.3681 13.3825 19.5904 13.5576 19.8389 13.5576C19.8735 13.5576 19.9087 13.5542 19.9439 13.5471C20.2323 13.4894 20.4193 13.2089 20.3617 12.9207ZM16.2869 10.789L16.8176 8.1355C16.8473 7.98676 16.979 7.87878 17.1307 7.87878H18.0055C18.1573 7.87878 18.289 7.98676 18.3188 8.1355L18.8495 10.789H16.2869Z" fill="#A8A8A8"/>
<path d="M5.07522 15.3319C4.15543 15.3319 3.40717 16.0802 3.40717 17C3.40717 17.9198 4.15543 18.668 5.07522 18.668C5.99502 18.668 6.74328 17.9198 6.74328 17C6.74335 16.0802 5.99502 15.3319 5.07522 15.3319ZM5.07522 17.6033C4.74253 17.6033 4.47186 17.3327 4.47186 17C4.47186 16.6673 4.74253 16.3966 5.07522 16.3966C5.40792 16.3966 5.67859 16.6673 5.67859 17C5.67859 17.3327 5.40792 17.6033 5.07522 17.6033Z" fill="#A8A8A8"/>
<path d="M5.07522 19.8748C4.15543 19.8748 3.40717 20.623 3.40717 21.5428C3.40717 22.4626 4.15543 23.2109 5.07522 23.2109C5.99502 23.2109 6.74328 22.4626 6.74328 21.5428C6.74328 20.623 5.99502 19.8748 5.07522 19.8748ZM5.07522 22.1462C4.74253 22.1462 4.47186 21.8755 4.47186 21.5428C4.47186 21.2101 4.74253 20.9394 5.07522 20.9394C5.40792 20.9394 5.67859 21.2101 5.67859 21.5428C5.67859 21.8755 5.40792 22.1462 5.07522 22.1462Z" fill="#A8A8A8"/>
<path d="M5.07522 24.4177C4.15543 24.4177 3.40717 25.166 3.40717 26.0858C3.40717 27.0056 4.15543 27.7538 5.07522 27.7538C5.99502 27.7538 6.74328 27.0056 6.74328 26.0858C6.74335 25.1661 5.99502 24.4177 5.07522 24.4177ZM5.07522 26.6891C4.74253 26.6891 4.47186 26.4185 4.47186 26.0858C4.47186 25.7531 4.74253 25.4824 5.07522 25.4824C5.40792 25.4824 5.67859 25.7531 5.67859 26.0858C5.67859 26.4185 5.40792 26.6891 5.07522 26.6891Z" fill="#A8A8A8"/>
<path d="M17.5682 16.4677H8.48239C8.18841 16.4677 7.95001 16.706 7.95001 17C7.95001 17.294 8.18834 17.5324 8.48239 17.5324H17.5682C17.8622 17.5324 18.1006 17.2941 18.1006 17C18.1005 16.706 17.8622 16.4677 17.5682 16.4677Z" fill="#A8A8A8"/>
<path d="M10.7538 21.0105H8.48239C8.18841 21.0105 7.95001 21.2488 7.95001 21.5429C7.95001 21.8369 8.18834 22.0753 8.48239 22.0753H10.7538C11.0478 22.0753 11.2862 21.8369 11.2862 21.5429C11.2862 21.2488 11.0478 21.0105 10.7538 21.0105Z" fill="#A8A8A8"/>
</g>
<defs>
<clipPath id="clip0">
<rect width="34" height="34" fill="white"/>
</clipPath>
</defs>
</svg>
