<svg width="34" height="34" viewBox="0 0 34 34" fill="none" xmlns="http://www.w3.org/2000/svg">
<g clip-path="url(#clip0)">
<path d="M15.9331 34H18.0669C19.7928 34 21.1969 32.5959 21.1969 30.8701V30.1482C21.9307 29.9138 22.6435 29.6179 23.3284 29.2634L23.84 29.775C25.0791 31.0156 27.0639 30.9792 28.2669 29.7746L29.7751 28.2665C30.9803 27.0626 31.015 25.0785 29.7747 23.8395L29.2635 23.3283C29.6179 22.6435 29.9138 21.9307 30.1482 21.1969H30.8701C32.5958 21.1969 34 19.7928 34 18.0669V15.9331C34 14.2072 32.5958 12.8031 30.87 12.8031H30.1482C29.9137 12.0693 29.6179 11.3565 29.2634 10.6717L29.775 10.1602C31.0146 8.92195 30.9804 6.93759 29.7746 5.73318L28.2664 4.22497C27.0605 3.01743 25.0761 2.98729 23.8394 4.22536L23.3283 4.73649C22.6435 4.38215 21.9306 4.08624 21.1969 3.85176V3.12993C21.1969 1.40409 19.7928 0 18.0669 0H15.9331C14.2072 0 12.8031 1.40409 12.8031 3.12993V3.85183C12.0694 4.08624 11.3565 4.38215 10.6717 4.73656L10.1601 4.22497C8.92101 2.98436 6.9362 3.02075 5.73312 4.22543L4.22496 5.73352C3.01976 6.93739 2.98509 8.92155 4.22536 10.1605L4.73656 10.6717C4.38215 11.3565 4.08631 12.0693 3.85183 12.8031H3.12999C1.40416 12.8031 0 14.2072 0 15.9331V18.0669C0 19.7928 1.40416 21.1969 3.12999 21.1969H3.85183C4.08631 21.9307 4.38215 22.6435 4.73656 23.3283L4.22496 23.8399C2.98542 25.0781 3.01962 27.0625 4.22536 28.2669L5.73365 29.7751C6.93952 30.9826 8.92387 31.0128 10.1606 29.7747L10.6717 29.2636C11.3565 29.6179 12.0694 29.9138 12.8031 30.1483V30.8702C12.8031 32.5959 14.2072 34 15.9331 34ZM22.9954 27.1714C22.044 27.7341 21.02 28.1592 19.9519 28.4348C19.512 28.5483 19.2047 28.945 19.2047 29.3993V30.8701C19.2047 31.4974 18.6942 32.0078 18.0669 32.0078H15.9331C15.3057 32.0078 14.7952 31.4974 14.7952 30.8701V29.3993C14.7952 28.945 14.4879 28.5483 14.048 28.4348C12.98 28.1592 11.956 27.7341 11.0046 27.1714C10.6131 26.94 10.1147 27.0029 9.79313 27.3245L8.75135 28.3664C8.30218 28.8161 7.58087 28.8056 7.14272 28.3668L5.63351 26.8577C5.19642 26.4211 5.18181 25.6997 5.63311 25.249L6.67536 24.2067C6.99689 23.8852 7.05985 23.3868 6.82842 22.9954C6.26576 22.044 5.84076 21.02 5.56511 19.9519C5.45155 19.512 5.05484 19.2048 4.60062 19.2048H3.12992C2.50259 19.2048 1.99212 18.6944 1.99212 18.067V15.9331C1.99212 15.3058 2.50259 14.7954 3.12992 14.7954H4.60062C5.05491 14.7954 5.45155 14.4881 5.56511 14.0482C5.84076 12.9801 6.26583 11.9561 6.82842 11.0048C7.05985 10.6134 6.99689 10.1149 6.67536 9.7934L5.63351 8.75155C5.18314 8.30171 5.19489 7.58054 5.63311 7.14286L7.14219 5.63377C7.57961 5.19576 8.30105 5.18294 8.75088 5.63338L9.79306 6.67562C10.1146 6.99723 10.6132 7.06018 11.0045 6.82869C11.9559 6.26603 12.9799 5.84096 14.048 5.56531C14.4879 5.45182 14.7952 5.05511 14.7952 4.60082V3.12993C14.7952 2.50259 15.3056 1.99219 15.933 1.99219H18.0668C18.6942 1.99219 19.2046 2.50259 19.2046 3.12993V4.60069C19.2046 5.05498 19.5119 5.45169 19.9518 5.56518C21.0199 5.84083 22.0439 6.26589 22.9953 6.82855C23.3868 7.05998 23.8852 6.99703 24.2067 6.67549L25.2485 5.63364C25.6977 5.18394 26.4191 5.19436 26.8571 5.63318L28.3664 7.14232C28.8034 7.57888 28.8181 8.30025 28.3668 8.75102L27.3245 9.79326C27.003 10.1148 26.94 10.6132 27.1714 11.0046C27.7341 11.956 28.1591 12.98 28.4348 14.0481C28.5483 14.488 28.945 14.7952 29.3992 14.7952H30.87C31.4973 14.7953 32.0078 15.3057 32.0078 15.9331V18.0669C32.0078 18.6943 31.4973 19.2047 30.87 19.2047H29.3993C28.945 19.2047 28.5484 19.512 28.4348 19.9518C28.1592 21.02 27.7341 22.044 27.1715 22.9953C26.9401 23.3867 27.003 23.8851 27.3246 24.2067L28.3664 25.2485C28.8168 25.6984 28.805 26.4195 28.3668 26.8572L26.8577 28.3663C26.4203 28.8043 25.6989 28.8171 25.2491 28.3667L24.2069 27.3244C23.9699 27.0876 23.477 26.8866 22.9954 27.1714Z" fill="#A8A8A8"/>
<path d="M17 24.3976C21.0791 24.3976 24.3976 21.079 24.3976 17C24.3976 12.9209 21.0791 9.60229 17 9.60229C12.9209 9.60229 9.60233 12.9209 9.60233 17C9.60233 21.079 12.9209 24.3976 17 24.3976ZM17 11.5945C19.9806 11.5945 22.4055 14.0194 22.4055 17C22.4055 19.9805 19.9806 22.4054 17 22.4054C14.0194 22.4054 11.5945 19.9805 11.5945 17C11.5945 14.0194 14.0193 11.5945 17 11.5945Z" fill="#A8A8A8"/>
</g>
<defs>
<clipPath id="clip0">
<rect width="34" height="34" transform="matrix(-1 0 0 1 34 0)" fill="white"/>
</clipPath>
</defs>
</svg>
