<svg width="26" height="36" viewBox="0 0 26 36" fill="none" xmlns="http://www.w3.org/2000/svg">
<path d="M22.0702 13.2816H10.7102C10.419 13.2816 10.1829 13.0455 10.1829 12.7543C10.1829 12.463 10.419 12.2269 10.7102 12.2269H22.0702C22.3615 12.2269 22.5976 12.463 22.5976 12.7543C22.5976 13.0455 22.3615 13.2816 22.0702 13.2816Z" fill="#4680FF"/>
<path d="M22.0702 16.1903H10.7102C10.419 16.1903 10.1829 15.9542 10.1829 15.663C10.1829 15.3717 10.419 15.1356 10.7102 15.1356H22.0702C22.3615 15.1356 22.5976 15.3717 22.5976 15.663C22.5976 15.9542 22.3615 16.1903 22.0702 16.1903Z" fill="#4680FF"/>
<path d="M22.0702 20.7229H10.7102C10.419 20.7229 10.1829 20.4868 10.1829 20.1956C10.1829 19.9043 10.419 19.6682 10.7102 19.6682H22.0702C22.3615 19.6682 22.5976 19.9043 22.5976 20.1956C22.5976 20.4868 22.3615 20.7229 22.0702 20.7229Z" fill="#4680FF"/>
<path d="M22.0702 23.6316H10.7102C10.419 23.6316 10.1829 23.3955 10.1829 23.1042C10.1829 22.813 10.419 22.5769 10.7102 22.5769H22.0702C22.3615 22.5769 22.5976 22.813 22.5976 23.1042C22.5976 23.3955 22.3615 23.6316 22.0702 23.6316Z" fill="#4680FF"/>
<path d="M22.0702 28.1641H10.7102C10.419 28.1641 10.1829 27.928 10.1829 27.6367C10.1829 27.3455 10.419 27.1094 10.7102 27.1094H22.0702C22.3615 27.1094 22.5976 27.3455 22.5976 27.6367C22.5976 27.928 22.3615 28.1641 22.0702 28.1641Z" fill="#4680FF"/>
<path d="M22.0702 31.0728H10.7102C10.419 31.0728 10.1829 30.8366 10.1829 30.5454C10.1829 30.2542 10.419 30.0181 10.7102 30.0181H22.0702C22.3615 30.0181 22.5976 30.2542 22.5976 30.5454C22.5976 30.8366 22.3615 31.0728 22.0702 31.0728Z" fill="#4680FF"/>
<path d="M18.7041 7.54334H7.29578C6.5821 7.54334 6.00146 6.9627 6.00146 6.24902V4.9024C6.00146 4.18873 6.5821 3.60809 7.29578 3.60809H10.1572C10.2893 3.60809 10.3968 3.50058 10.3968 3.36846V2.60304C10.3969 1.16768 11.5646 0 12.9999 0C14.4353 0 15.603 1.16768 15.603 2.60304V3.36853C15.603 3.50065 15.7105 3.60816 15.8426 3.60816H18.7041C19.4177 3.60816 19.9984 4.1888 19.9984 4.90247V6.24909C19.9984 6.9627 19.4178 7.54334 18.7041 7.54334ZM7.29578 4.66277C7.16366 4.66277 7.05615 4.77028 7.05615 4.9024V6.24902C7.05615 6.38114 7.16366 6.48865 7.29578 6.48865H18.7041C18.8362 6.48865 18.9437 6.38114 18.9437 6.24902V4.9024C18.9437 4.77028 18.8362 4.66277 18.7041 4.66277H15.8426C15.1289 4.66277 14.5483 4.08213 14.5483 3.36846V2.60304C14.5483 1.74923 13.8537 1.05469 12.9999 1.05469C12.1462 1.05469 11.4516 1.74923 11.4516 2.60304V3.36853C11.4516 4.0822 10.871 4.66284 10.1573 4.66284H7.29578V4.66277Z" fill="#4680FF"/>
<path d="M23.9678 36H2.03207C0.929847 36 0.0330811 35.1033 0.0330811 34.001V6.99154C0.0330811 5.88932 0.929847 4.99255 2.03207 4.99255H4.0603C4.35153 4.99255 4.58764 5.22866 4.58764 5.5199C4.58764 5.81113 4.35153 6.04724 4.0603 6.04724H2.03207C1.5114 6.04724 1.08777 6.47087 1.08777 6.99154V34.001C1.08777 34.5216 1.5114 34.9453 2.03207 34.9453H23.9678C24.4885 34.9453 24.9121 34.5216 24.9121 34.001V6.99154C24.9121 6.47087 24.4885 6.04724 23.9678 6.04724H21.9373C21.6461 6.04724 21.41 5.81113 21.41 5.5199C21.41 5.22866 21.6461 4.99255 21.9373 4.99255H23.9678C25.07 4.99255 25.9668 5.88932 25.9668 6.99154V34.001C25.9668 35.1033 25.07 36 23.9678 36Z" fill="#4680FF"/>
<path d="M5.94054 16.3798C5.80434 16.3798 5.66829 16.3501 5.54158 16.2906C4.90406 15.9914 3.41941 15.1413 3.40246 13.714C3.39156 12.8007 4.12725 12.0397 5.0508 12.0378C5.44385 12.0389 5.73776 12.1615 5.94567 12.3102C6.19894 12.1302 6.50655 12.0368 6.83991 12.0379C7.78842 12.0448 8.51433 12.8467 8.47784 13.7696C8.42264 15.1646 6.96548 15.997 6.34153 16.2901C6.21405 16.3498 6.07722 16.3798 5.94054 16.3798ZM5.05298 13.0925C4.72272 13.0932 4.45314 13.3682 4.45708 13.7015C4.46693 14.5308 5.60458 15.1481 5.94096 15.3126C6.64992 14.9694 7.39812 14.3806 7.42392 13.7279C7.43728 13.3896 7.17438 13.095 6.8321 13.0926C6.66891 13.0897 6.54755 13.1485 6.45846 13.2672C6.20449 13.6057 5.68066 13.6151 5.42184 13.2573C5.34147 13.146 5.22356 13.0941 5.05298 13.0925Z" fill="#4680FF"/>
<path d="M5.54158 23.7318C4.90406 23.4325 3.41941 22.5824 3.40246 21.1552C3.3915 20.2398 4.129 19.4809 5.05087 19.4791C5.44638 19.4761 5.73776 19.6027 5.94567 19.7514C6.19887 19.5714 6.50494 19.4781 6.83991 19.4791C7.7847 19.486 8.51454 20.2839 8.47791 21.2107C8.42271 22.6059 6.96549 23.4381 6.34153 23.7312C6.08693 23.8507 5.79548 23.8509 5.54158 23.7318ZM5.05291 20.5337C4.72272 20.5343 4.45315 20.8092 4.45708 21.1427C4.46496 21.806 5.21955 22.4047 5.94089 22.7538C6.64985 22.4107 7.39819 21.8219 7.42399 21.169C7.43763 20.8248 7.16911 20.5361 6.83217 20.5337C6.66701 20.5302 6.54755 20.5896 6.45853 20.7083C6.19753 21.056 5.67518 21.0484 5.42191 20.6984C5.34148 20.5872 5.22356 20.5315 5.05291 20.5337C5.05298 20.5337 5.05298 20.5337 5.05291 20.5337Z" fill="#4680FF"/>
<path d="M5.54158 31.1731C4.90406 30.8738 3.41941 30.0238 3.40246 28.5965C3.39156 27.6831 4.12724 26.9221 5.0508 26.9203C5.44384 26.9188 5.73775 27.0439 5.94566 27.1926C6.19893 27.0126 6.50725 26.9207 6.83983 26.9204C7.78469 26.9273 8.51446 27.7253 8.47782 28.652C8.42263 30.0471 6.96548 30.8795 6.34152 31.1725C6.08678 31.292 5.79541 31.2922 5.54158 31.1731ZM5.05298 27.9749C4.72272 27.9755 4.45314 28.2506 4.45708 28.5839C4.46692 29.4132 5.60458 30.0305 5.94095 30.195C6.64991 29.8518 7.39811 29.263 7.42391 28.6103C7.43727 28.272 7.17437 27.9774 6.83209 27.975C6.83048 27.975 6.82886 27.975 6.82717 27.975C6.66721 27.975 6.54655 28.0322 6.45838 28.1496C6.19802 28.4967 5.67538 28.4904 5.4217 28.1397C5.34154 28.0288 5.22138 27.975 5.05438 27.975C5.05403 27.9749 5.05354 27.9749 5.05298 27.9749Z" fill="#4680FF"/>
</svg>
